<?xml version="1.0" encoding="UTF-8"?>
<svg width="206px" height="17px" viewBox="0 0 206 17" version="1.1" xmlns="http://www.w3.org/2000/svg" xmlns:xlink="http://www.w3.org/1999/xlink">
    <defs></defs>
    <g id="Page-1" stroke="none" stroke-width="1" fill="none" fill-rule="evenodd">
        <g id="UT_Logo_Black_EN" fill="#ffffff">
            <path d="M9.359,11.079 C9.359,15.015 7.731,16.264 4.671,16.264 C1.165,16.264 0.001,14.522 0.001,10.892 L0.001,0.998 L2.308,0.998 L2.308,10.712 C2.308,12.038 2.221,14.531 4.688,14.531 C6.726,14.531 7.091,13.05 7.091,10.815 L7.091,0.998 L9.359,0.998 L9.359,11.079" id="Fill-1"></path>
            <polyline id="Fill-2" points="176.571 15.998 172.057 3.037 172.057 15.998 170.12 15.998 170.12 0.998 173.505 0.998 178.02 13.958 178.02 0.998 180.097 0.998 180.097 15.998 176.571 15.998"></polyline>
            <polyline id="Fill-3" points="18.831 15.998 14.316 3.037 14.316 15.998 12.38 15.998 12.38 0.998 15.765 0.998 20.28 13.958 20.28 0.998 22.357 0.998 22.357 15.998 18.831 15.998"></polyline>
            <polygon id="Fill-4" points="25.853 15.998 28.179 15.998 28.179 0.998 25.853 0.998"></polygon>
            <polygon id="Fill-5" points="75.299 15.998 77.625 15.998 77.625 0.998 75.299 0.998"></polygon>
            <polyline id="Fill-6" points="36.585 15.998 33.85 15.998 30.059 0.998 32.479 0.998 35.324 13.876 38.274 0.998 40.542 0.998 36.585 15.998"></polyline>
            <polyline id="Fill-7" points="42.373 15.998 42.373 0.998 49.801 0.998 49.801 2.79 44.679 2.79 44.679 7.365 49.469 7.365 49.469 9.097 44.679 9.097 44.679 14.205 49.945 14.205 49.945 15.998 42.373 15.998"></polyline>
            <polyline id="Fill-8" points="159.857 15.998 159.857 0.998 167.285 0.998 167.285 2.79 162.163 2.79 162.163 7.365 166.953 7.365 166.953 9.097 162.163 9.097 162.163 14.205 167.43 14.205 167.43 15.998 159.857 15.998"></polyline>
            <polyline id="Fill-9" points="193.088 15.998 193.088 0.998 200.516 0.998 200.516 2.79 195.394 2.79 195.394 7.365 200.184 7.365 200.184 9.097 195.394 9.097 195.394 14.205 200.661 14.205 200.661 15.998 193.088 15.998"></polyline>
            <path d="M58.812,4.976 C58.812,3.239 57.894,2.751 56.441,2.751 L54.886,2.751 L54.886,7.554 L56.098,7.554 C58.085,7.554 58.812,7.027 58.812,4.976 Z M58.845,15.998 C58.633,14.56 58.632,12.349 58.616,12.072 C58.562,10.949 58.416,10.23 58.181,9.91 C57.905,9.509 57.27,9.308 56.274,9.308 L54.886,9.308 L54.886,15.998 L52.562,15.998 L52.562,0.998 L56.874,0.998 C59.354,0.998 61.166,1.593 61.166,4.794 C61.166,6.814 60.348,8.025 58.714,8.425 C59.557,8.495 60.138,8.785 60.455,9.296 C60.705,9.685 60.933,10.579 60.933,11.7 C60.933,12.128 61.023,15.056 61.243,15.998 L58.845,15.998 L58.845,15.998 Z" id="Fill-10"></path>
            <path d="M72.453,12.22 C72.453,14.915 70.979,16.264 68.032,16.264 C64.734,16.264 63.592,14.94 63.592,11.791 L63.592,11.626 L65.973,11.626 L65.973,11.791 C65.973,13.572 66.429,14.55 68.031,14.55 C69.403,14.55 70.09,13.835 70.09,12.406 C70.09,11.129 69.315,10.527 68.657,10.099 C68.34,9.892 67.918,9.628 67.391,9.308 C65.176,7.945 63.801,7.04 63.801,4.607 C63.801,2.124 65.337,0.712 68.195,0.712 C70.933,0.712 72.301,1.96 72.301,4.458 L72.301,4.998 L69.975,4.998 L69.975,4.624 C69.975,3.171 69.348,2.447 68.09,2.447 C66.951,2.447 66.163,3.102 66.163,4.441 C66.163,5.928 67.223,6.415 68.219,7.056 C68.564,7.277 68.918,7.505 69.277,7.74 C71.626,9.24 72.453,9.924 72.453,12.22" id="Fill-11"></path>
            <polyline id="Fill-12" points="85.335 2.79 85.335 15.998 83.011 15.998 83.011 2.79 79.548 2.79 79.548 0.998 88.798 0.998 88.798 2.79 85.335 2.79"></polyline>
            <polyline id="Fill-13" points="136.534 2.79 136.534 15.998 134.21 15.998 134.21 2.79 130.747 2.79 130.747 0.998 139.997 0.998 139.997 2.79 136.534 2.79"></polyline>
            <polyline id="Fill-14" points="187.73 2.79 187.73 15.998 185.406 15.998 185.406 2.79 181.943 2.79 181.943 0.998 191.193 0.998 191.193 2.79 187.73 2.79"></polyline>
            <polyline id="Fill-15" points="154.666 15.998 151.952 15.998 149.611 3.412 147.021 15.998 144.307 15.998 141.116 0.998 143.574 0.998 145.794 13.542 148.365 0.998 151.08 0.998 153.445 13.542 155.83 0.998 158.002 0.998 154.666 15.998"></polyline>
            <path d="M205.074,15.109 C205.074,15.776 204.532,16.32 203.862,16.32 C203.191,16.32 202.652,15.776 202.652,15.109 C202.652,14.438 203.191,13.892 203.862,13.892 C204.532,13.892 205.074,14.438 205.074,15.109" id="Fill-16"></path>
            <polyline id="Fill-17" points="95.519 10.273 95.519 15.999 93.194 15.999 93.194 10.273 89.252 0.998 91.825 0.998 94.522 8.157 97.282 0.998 99.668 0.998 95.519 10.273"></polyline>
            <path d="M112.644,8.363 C112.644,6.551 112.582,5.299 112.458,4.607 C112.181,3.169 111.44,2.45 110.237,2.45 C109.047,2.45 108.293,3.21 107.976,4.732 C107.92,5.008 107.878,5.452 107.851,6.06 C107.823,6.668 107.81,7.457 107.81,8.425 C107.81,9.325 107.82,10.079 107.841,10.687 C107.861,11.295 107.899,11.766 107.955,12.098 C108.079,12.915 108.3,13.516 108.619,13.903 C108.964,14.332 109.504,14.546 110.237,14.546 C111.468,14.546 112.215,13.772 112.478,12.222 C112.533,11.904 112.575,11.427 112.603,10.79 C112.63,10.155 112.644,9.345 112.644,8.363 Z M115.051,8.632 C115.051,11.344 114.815,13.176 114.345,14.131 C113.667,15.556 112.277,16.268 110.175,16.268 C108.169,16.268 106.827,15.583 106.149,14.214 C105.873,13.633 105.679,12.879 105.569,11.953 C105.486,11.247 105.444,10.147 105.444,8.654 C105.444,6.841 105.506,5.528 105.631,4.711 C105.797,3.59 106.149,2.706 106.689,2.055 C107.464,1.157 108.646,0.707 110.237,0.707 C111.855,0.707 113.038,1.115 113.785,1.931 C114.338,2.526 114.698,3.411 114.864,4.586 C114.989,5.403 115.051,6.751 115.051,8.632 L115.051,8.632 Z" id="Fill-18"></path>
            <polyline id="Fill-19" points="120.293 2.783 120.293 7.389 124.733 7.389 124.733 9.131 120.293 9.131 120.293 15.999 117.99 15.999 117.99 0.998 124.982 0.998 124.982 2.783 120.293 2.783"></polyline>
        </g>
    </g>
</svg>
