<?xml version="1.0" encoding="utf-8"?>
<!-- Generator: Adobe Illustrator 24.3.0, SVG Export Plug-In . SVG Version: 6.00 Build 0)  -->
<svg version="1.0" id="Layer_1" xmlns="http://www.w3.org/2000/svg" xmlns:xlink="http://www.w3.org/1999/xlink" x="0px" y="0px"
	 viewBox="0 0 1080 1080" style="enable-background:new 0 0 1080 1080;" xml:space="preserve">
<style type="text/css">
	.st0{fill:#45505B;}
</style>
<g>
	<path class="st0" d="M396.04,169.36v0.11c4.39-0.07,8.86-0.11,13.36-0.11H396.04z M480.24,546.41v322.14l-84.2,13.73v19.22h0.55
		v-19.22l84.2-13.73V546.41H480.24z"/>
	<path class="st0" d="M1000.05,868.54L707.2,436.59l207.74-208.66l75.04-38.44v-20.13h-211.4v20.13l99.75,38.44L581.46,531.2
		l-0.55,0.57V202.3l84.2-12.81v-20.13h-255.7c-4.5,0-8.97,0.04-13.36,0.11c-92.56,1.34-160.08,16.86-202.62,46.56
		c-44.53,31.12-66.81,78.41-66.81,141.85c0,104.95,63.46,165.65,190.35,182.12v5.49c-46.97,6.74-84.65,23.5-113.02,50.33
		c-28.37,26.87-46.22,62.56-53.54,107.07l-11.9,78.7c-4.87,34.19-10.52,57.36-16.93,69.55c-6.41,12.23-16.31,18.3-29.74,18.3
		c-9.15,0-18.91-2.87-29.29-8.69c-10.36-5.78-20.13-13.27-29.29-22.42l-15.56,16.47c17.7,20.13,36,34.48,54.91,43.01
		c18.93,8.55,39.35,12.81,61.32,12.81c34.17,0,59.8-8.24,76.87-24.71c17.1-16.47,28.68-44.51,34.78-84.2l17.39-122.63
		c6.11-41.48,20.3-73.96,42.56-97.47c22.28-23.46,56.91-35.23,103.87-35.23h71.38v322.14l-84.2,13.73v19.22H665.1v-19.22
		l-84.2-13.73V563.79l0.55-0.55l54.36-55.28l239.77,361.49l-83.28,12.81v19.22h269.97v-19.22L1000.05,868.54z M480.79,524.44h-102.5
		c-44.53,0-79.16-13.56-103.87-40.72c-24.71-27.13-37.06-67.26-37.06-120.34v-19.22c0-101.25,57.36-151.92,172.05-151.92h71.38
		V524.44z"/>
</g>
</svg>
