<svg id="Layer_1" data-name="Layer 1" xmlns="http://www.w3.org/2000/svg" viewBox="0 0 1044.6 741.3"><defs><style>.cls-1{fill:#fff;}</style></defs><path class="cls-1" d="M396,169.4h0Zm84.2,377V868.5L396,882.3v19.2h.6V882.3l84.2-13.8V546.4Z" transform="translate(-17.7 -169.4)"/><path class="cls-1" d="M1000,868.5,707.2,436.6,914.9,227.9,990,189.5V169.4H778.6v20.1l99.7,38.4L581.5,531.2l-.6.6V202.3l84.2-12.8V169.4h-269q-138.9,2-202.7,46.5-66.7,46.6-66.8,141.9Q126.6,515.3,317,540v5.5q-70.5,10.1-113,50.3T150.4,702.9l-11.9,78.7q-7.4,51.3-16.9,69.5c-6.4,12.3-16.3,18.3-29.8,18.3-9.1,0-18.9-2.8-29.2-8.6a131,131,0,0,1-29.3-22.5L17.7,854.8c17.7,20.1,36,34.5,54.9,43s39.4,12.8,61.3,12.8q51.3,0,76.9-24.7c17.1-16.5,28.7-44.5,34.8-84.2L263,679.1q9.2-62.2,42.5-97.5t103.9-35.2h71.4V868.5l-84.2,13.7v19.3H665.1V882.2l-84.2-13.7V563.8l.5-.6L635.8,508,875.6,869.4l-83.3,12.9v19.2h270V882.3ZM480.8,524.4H378.3q-66.7,0-103.9-40.7t-37-120.3V344.2q0-151.9,172-152h71.4V524.4Z" transform="translate(-17.7 -169.4)"/></svg>